<?xml version="1.0" encoding="UTF-8"?>
<svg id="Ebene_1" data-name="Ebene 1" xmlns="http://www.w3.org/2000/svg" viewBox="0 0 883 230">
  <defs>
    <style>
      .cls-1 {
        fill: none;
        stroke: #1d1d1b;
        stroke-width: 5px;
      }

      .cls-2 {
        fill: #09131d;
      }

      .cls-3 {
        fill: #bbcf18;
      }

      .cls-4 {
        fill: #1d1d1b;
      }
    </style>
  </defs>
  <g>
    <path class="cls-3" d="m42.17,37l105.18-28.19c21.63-5.79,44.07,7.17,49.85,28.77l28.19,105.22c5.82,21.63-7.14,44.07-28.77,49.85l-105.22,28.19c-21.63,5.82-44.07-7.14-49.85-28.77L13.37,86.86c-5.79-21.63,7.17-44.07,28.8-49.85"/>
    <path class="cls-2" d="m97.66,37.34c0-1.42.68-2.12,2.09-2.12h16c1.42,0,2.12.71,2.12,2.12v143.22c0,1.42-.71,2.12-2.12,2.12h-16c-1.42,0-2.09-.71-2.09-2.12v-3.35c0-.26-.12-.5-.34-.65-.22-.12-.43-.06-.74.22-2.6,2.5-5.67,4.43-9.05,5.69-3.23,1.24-6.66,1.89-10.12,1.91-9.26,0-16.59-3.08-22-9.17-5.42-6.09-8.09-14.16-8.09-24.13v-43.82c0-10.37,2.68-18.56,8.09-24.53,5.42-5.97,12.74-8.96,22-8.96,3.46,0,6.89.64,10.12,1.88,3.37,1.27,6.44,3.21,9.05,5.69.31.28.52.37.74.22.22-.13.35-.36.34-.62v-43.61Zm-4.95,125.65c2.74-2.62,4.37-6,4.95-10.22v-47.39c-.58-4.22-2.22-7.63-4.95-10.22-5.91-5.63-15.66-5.14-21.08.92-2.86,3.23-4.31,7.39-4.31,12.43v41.08c0,5.05,1.45,9.2,4.31,12.43,5.42,6.06,15.17,6.55,21.08.95m72.23,21.39c-10.8,0-19.42-3.02-25.79-9.08-6.37-6.06-9.6-14.19-9.6-24.43v-43.61c0-9.97,3.2-18.04,9.6-24.22,6.37-6.19,14.99-9.26,25.79-9.26,7.18,0,13.47,1.36,18.86,4.09,5.42,2.74,9.54,6.46,12.43,11.17,2.89,4.71,4.31,10.65,4.31,16.56v2.8c0,1.38-.71,2.09-2.09,2.09h-16.03c-1.38,0-2.09-.71-2.09-2.09v-2.18c0-4.06-1.48-7.57-4.43-10.52-5.91-5.94-16.31-6-21.91.4-2.8,3.23-4.22,7.39-4.22,12.43v41.08c0,5.05,1.42,9.2,4.22,12.43,5.6,6.43,16,6.34,21.91.43,2.95-2.95,4.43-6.49,4.43-10.56v-2.09c0-1.42.71-2.12,2.09-2.12h16.03c1.38,0,2.09.71,2.09,2.12v3.39c0,9.11-3.23,16.59-9.69,22.43-6.46,5.82-15.08,8.74-25.91,8.74"/>
  </g>
  <g>
    <path class="cls-1" d="m324.54,66.79v13.72c0,.98-.7,1.68-1.68,1.68h-25.2c-.42,0-.7.28-.7.7v78.54c0,.98-.7,1.68-1.68,1.68h-16.38c-.98,0-1.68-.7-1.68-1.68v-78.54c0-.42-.28-.7-.7-.7h-24.22c-.98,0-1.68-.7-1.68-1.68v-13.72c0-.98.7-1.68,1.68-1.68h70.56c.98,0,1.68.7,1.68,1.68Z"/>
    <path class="cls-1" d="m336.3,161.43v-94.64c0-.98.7-1.68,1.68-1.68h16.38c.98,0,1.68.7,1.68,1.68v94.64c0,.98-.7,1.68-1.68,1.68h-16.38c-.98,0-1.68-.7-1.68-1.68Z"/>
    <path class="cls-1" d="m432.34,65.11h16.38c.98,0,1.68.7,1.68,1.68v94.64c0,.98-.7,1.68-1.68,1.68h-17.64c-.84,0-1.68-.28-2.1-1.12l-34.3-59.36c-.28-.56-.84-.42-.84.28l.14,58.52c0,.98-.7,1.68-1.68,1.68h-16.38c-.98,0-1.68-.7-1.68-1.68v-94.64c0-.98.7-1.68,1.68-1.68h17.78c.84,0,1.68.42,2.1,1.12l34.02,59.36c.28.56.84.42.84-.28v-58.52c0-.98.7-1.68,1.68-1.68Z"/>
    <path class="cls-1" d="m491.14,161.29v-35.42c0-.28,0-.56-.14-.84l-28.98-57.96c-.56-1.26,0-1.96,1.26-1.96h17.78c.84,0,1.54.28,1.96,1.26l17.5,37.24c.28.56.56.56.84,0l17.5-37.24c.42-.98,1.12-1.26,1.96-1.26h17.78c1.26,0,1.82.7,1.26,1.96l-28.98,57.96c-.14.28-.14.56-.14.84v35.42c0,.98-.7,1.68-1.68,1.68h-16.24c-.98,0-1.68-.7-1.68-1.68Z"/>
    <path class="cls-4" d="m541.54,134.97v-3.08c0-.98.7-1.68,1.68-1.68h15.96c.98,0,1.68.7,1.68,1.68v2.1c0,7.14,7,13.3,19.18,13.3,10.64,0,14.7-5.32,14.7-10.92,0-7.14-7.14-9.66-20.58-14.56-14.56-5.04-31.22-11.62-31.22-30.1,0-17.22,14-27.72,34.16-27.72,21.42,0,36.68,12.04,36.68,30.1v2.1c0,.98-.7,1.68-1.68,1.68h-16.1c-.98,0-1.68-.7-1.68-1.68v-1.12c0-7.28-6.3-14.14-18.06-14.14-8.82,0-14,3.92-14,10.5,0,7.28,6.3,9.8,21.84,15.26,12.6,4.62,30.38,10.08,30.38,29.12,0,17.64-14,28.42-35.84,28.42s-37.1-11.48-37.1-29.26Z"/>
    <path class="cls-4" d="m680.83,65.11h16.38c.98,0,1.68.7,1.68,1.68v94.64c0,.98-.7,1.68-1.68,1.68h-16.38c-.98,0-1.68-.7-1.68-1.68v-38.64c0-.42-.28-.7-.7-.7h-30.8c-.42,0-.7.28-.7.7v38.64c0,.98-.7,1.68-1.68,1.68h-16.38c-.98,0-1.68-.7-1.68-1.68v-94.64c0-.98.7-1.68,1.68-1.68h16.38c.98,0,1.68.7,1.68,1.68v37.66c0,.42.28.7.7.7h30.8c.42,0,.7-.28.7-.7v-37.66c0-.98.7-1.68,1.68-1.68Z"/>
    <path class="cls-4" d="m713.73,129.09v-29.96c0-21,14.7-35.14,36.82-35.14s36.96,14.14,36.96,35.14v29.96c0,21.28-14.84,35.56-36.96,35.56s-36.82-14.28-36.82-35.56Zm54.04.7v-30.8c0-10.92-6.86-18.06-17.22-18.06s-17.08,7.14-17.08,18.06v30.8c0,10.78,6.86,17.92,17.08,17.92s17.22-7.14,17.22-17.92Z"/>
    <path class="cls-4" d="m874.31,95.35c0,17.78-12.74,29.68-31.78,29.68h-19.74c-.42,0-.7.28-.7.7v35.7c0,.98-.7,1.68-1.68,1.68h-16.38c-.98,0-1.68-.7-1.68-1.68v-94.78c0-.98.7-1.68,1.68-1.68h39.34c18.62,0,30.94,12.18,30.94,30.38Zm-19.6.42c0-8.26-5.74-13.72-14.28-13.72h-17.64c-.42,0-.7.28-.7.7v25.76c0,.42.28.7.7.7h17.64c8.54,0,14.28-5.46,14.28-13.44Z"/>
  </g>
</svg>