<?xml version="1.0" encoding="UTF-8"?>
<svg id="Ebene_1" data-name="Ebene 1" xmlns="http://www.w3.org/2000/svg" viewBox="0 0 944 398">
  <defs>
    <style>
      .cls-1 {
        fill: none;
        stroke: #1d1d1b;
        stroke-width: 5px;
      }

      .cls-2 {
        fill: #09131d;
      }

      .cls-3 {
        fill: #bbcf18;
      }

      .cls-4 {
        fill: #1d1d1b;
      }
    </style>
  </defs>
  <g>
    <path class="cls-3" d="m73.39,64.06L255.74,15.2c37.5-10.03,76.4,12.43,86.42,49.88l48.87,182.4c10.08,37.5-12.38,76.4-49.88,86.42l-182.4,48.87c-37.5,10.08-76.4-12.38-86.42-49.88L23.46,150.49c-10.03-37.5,12.43-76.4,49.93-86.42"/>
    <path class="cls-2" d="m169.58,64.65c0-2.45,1.17-3.68,3.63-3.68h27.74c2.45,0,3.68,1.23,3.68,3.68v248.28c0,2.45-1.23,3.68-3.68,3.68h-27.74c-2.45,0-3.63-1.23-3.63-3.68v-5.82c0-.45-.22-.87-.59-1.12-.37-.21-.75-.11-1.28.37-4.5,4.33-9.84,7.69-15.68,9.87-5.6,2.16-11.55,3.28-17.55,3.31-16.06,0-28.75-5.33-38.14-15.9-9.39-10.56-14.03-24.54-14.03-41.83v-75.97c0-17.98,4.64-32.17,14.03-42.52,9.39-10.35,22.09-15.52,38.14-15.52,6,.01,11.95,1.12,17.55,3.25,5.84,2.2,11.17,5.56,15.68,9.87.53.48.91.64,1.28.37.38-.22.61-.63.59-1.07v-75.6Zm-8.59,217.82c4.75-4.53,7.58-10.4,8.59-17.71v-82.16c-1.01-7.31-3.84-13.23-8.59-17.71-10.24-9.76-27.15-8.91-36.54,1.6-4.96,5.6-7.47,12.8-7.47,21.55v71.22c0,8.75,2.51,15.95,7.47,21.55,9.39,10.51,26.3,11.36,36.54,1.65m125.21,37.08c-18.73,0-33.66-5.23-44.71-15.74-11.04-10.51-16.64-24.59-16.64-42.36v-75.6c0-17.28,5.55-31.28,16.64-41.99,11.04-10.72,25.98-16.06,44.71-16.06,12.45,0,23.35,2.37,32.7,7.1,9.39,4.75,16.54,11.2,21.55,19.37,5.01,8.16,7.47,18.46,7.47,28.7v4.85c0,2.4-1.23,3.63-3.63,3.63h-27.79c-2.4,0-3.63-1.23-3.63-3.63v-3.79c0-7.04-2.56-13.12-7.68-18.25-10.24-10.3-28.27-10.4-37.98.69-4.85,5.6-7.31,12.8-7.31,21.55v71.22c0,8.75,2.45,15.95,7.31,21.55,9.71,11.15,27.74,10.99,37.98.75,5.12-5.12,7.68-11.26,7.68-18.3v-3.63c0-2.45,1.23-3.68,3.63-3.68h27.79c2.4,0,3.63,1.23,3.63,3.68v5.87c0,15.79-5.6,28.75-16.8,38.89-11.2,10.08-26.14,15.15-44.92,15.15"/>
  </g>
  <g>
    <path class="cls-1" d="m550.84,40.26v19.83c0,1.42-1.01,2.43-2.43,2.43h-36.43c-.61,0-1.01.4-1.01,1.01v113.54c0,1.42-1.01,2.43-2.43,2.43h-23.68c-1.42,0-2.43-1.01-2.43-2.43V63.54c0-.61-.4-1.01-1.01-1.01h-35.01c-1.42,0-2.43-1.01-2.43-2.43v-19.83c0-1.42,1.01-2.43,2.43-2.43h102.01c1.42,0,2.43,1.01,2.43,2.43Z"/>
    <path class="cls-1" d="m588.09,177.08V40.26c0-1.42,1.01-2.43,2.43-2.43h23.68c1.42,0,2.43,1.01,2.43,2.43v136.82c0,1.42-1.01,2.43-2.43,2.43h-23.68c-1.42,0-2.43-1.01-2.43-2.43Z"/>
    <path class="cls-1" d="m747.17,37.83h23.68c1.42,0,2.43,1.01,2.43,2.43v136.82c0,1.42-1.01,2.43-2.43,2.43h-25.5c-1.21,0-2.43-.4-3.04-1.62l-49.59-85.81c-.41-.81-1.21-.61-1.21.4l.2,84.6c0,1.42-1.01,2.43-2.43,2.43h-23.68c-1.42,0-2.43-1.01-2.43-2.43V40.26c0-1.42,1.01-2.43,2.43-2.43h25.7c1.21,0,2.43.61,3.04,1.62l49.18,85.81c.4.81,1.21.61,1.21-.4V40.26c0-1.42,1.01-2.43,2.43-2.43Z"/>
    <path class="cls-1" d="m852.42,176.88v-51.21c0-.4,0-.81-.2-1.21l-41.9-83.79c-.81-1.82,0-2.83,1.82-2.83h25.7c1.21,0,2.23.4,2.83,1.82l25.3,53.84c.41.81.81.81,1.21,0l25.3-53.84c.61-1.42,1.62-1.82,2.83-1.82h25.7c1.82,0,2.63,1.01,1.82,2.83l-41.9,83.79c-.2.4-.2.81-.2,1.21v51.21c0,1.42-1.01,2.43-2.43,2.43h-23.48c-1.42,0-2.43-1.01-2.43-2.43Z"/>
    <path class="cls-4" d="m443.98,312.83v-4.45c0-1.42,1.01-2.43,2.43-2.43h23.07c1.42,0,2.43,1.01,2.43,2.43v3.04c0,10.32,10.12,19.23,27.73,19.23,15.38,0,21.25-7.69,21.25-15.79,0-10.32-10.32-13.96-29.75-21.05-21.05-7.29-45.13-16.8-45.13-43.51,0-24.89,20.24-40.07,49.38-40.07,30.97,0,53.03,17.41,53.03,43.51v3.04c0,1.42-1.01,2.43-2.43,2.43h-23.27c-1.42,0-2.43-1.01-2.43-2.43v-1.62c0-10.52-9.11-20.44-26.11-20.44-12.75,0-20.24,5.67-20.24,15.18,0,10.52,9.11,14.17,31.57,22.06,18.22,6.68,43.92,14.57,43.92,42.1,0,25.5-20.24,41.09-51.81,41.09s-53.63-16.6-53.63-42.3Z"/>
    <path class="cls-4" d="m645.36,211.83h23.68c1.42,0,2.43,1.01,2.43,2.43v136.82c0,1.42-1.01,2.43-2.43,2.43h-23.68c-1.42,0-2.43-1.01-2.43-2.43v-55.86c0-.61-.4-1.01-1.01-1.01h-44.53c-.61,0-1.01.4-1.01,1.01v55.86c0,1.42-1.01,2.43-2.43,2.43h-23.68c-1.42,0-2.43-1.01-2.43-2.43v-136.82c0-1.42,1.01-2.43,2.43-2.43h23.68c1.42,0,2.43,1.01,2.43,2.43v54.44c0,.61.4,1.01,1.01,1.01h44.53c.61,0,1.01-.4,1.01-1.01v-54.44c0-1.42,1.01-2.43,2.43-2.43Z"/>
    <path class="cls-4" d="m692.93,304.33v-43.31c0-30.36,21.25-50.8,53.23-50.8s53.43,20.44,53.43,50.8v43.31c0,30.76-21.45,51.41-53.43,51.41s-53.23-20.64-53.23-51.41Zm78.12,1.01v-44.53c0-15.79-9.92-26.11-24.89-26.11s-24.69,10.32-24.69,26.11v44.53c0,15.58,9.92,25.91,24.69,25.91s24.89-10.32,24.89-25.91Z"/>
    <path class="cls-4" d="m925.08,255.55c0,25.7-18.42,42.91-45.94,42.91h-28.54c-.61,0-1.01.4-1.01,1.01v51.61c0,1.42-1.01,2.43-2.43,2.43h-23.68c-1.42,0-2.43-1.01-2.43-2.43v-137.02c0-1.42,1.01-2.43,2.43-2.43h56.87c26.92,0,44.73,17.61,44.73,43.92Zm-28.33.61c0-11.94-8.3-19.83-20.64-19.83h-25.5c-.61,0-1.01.41-1.01,1.01v37.24c0,.61.4,1.01,1.01,1.01h25.5c12.35,0,20.64-7.89,20.64-19.43Z"/>
  </g>
</svg>